<mxfile host="app.diagrams.net" agent="Mozilla/5.0 (Macintosh; Intel Mac OS X 10.15; rv:143.0) Gecko/20100101 Firefox/143.0" version="28.2.5">
  <diagram name="Page-1" id="pNBeXpuQ4L14QntjSeyP">
    <mxGraphModel dx="1409" dy="1148" grid="1" gridSize="10" guides="1" tooltips="1" connect="1" arrows="1" fold="1" page="1" pageScale="1" pageWidth="850" pageHeight="1100" math="0" shadow="0">
      <root>
        <mxCell id="0" />
        <mxCell id="1" parent="0" />
        <mxCell id="OhDDxIPIgr9wnCfn7Brg-9" value="" style="edgeStyle=orthogonalEdgeStyle;rounded=0;orthogonalLoop=1;jettySize=auto;html=1;shape=link;" parent="1" source="OhDDxIPIgr9wnCfn7Brg-1" target="OhDDxIPIgr9wnCfn7Brg-8" edge="1">
          <mxGeometry relative="1" as="geometry" />
        </mxCell>
        <mxCell id="OhDDxIPIgr9wnCfn7Brg-1" value="Employee" style="swimlane;fontStyle=0;childLayout=stackLayout;horizontal=1;startSize=30;horizontalStack=0;resizeParent=1;resizeParentMax=0;resizeLast=0;collapsible=1;marginBottom=0;whiteSpace=wrap;html=1;" parent="1" vertex="1">
          <mxGeometry x="340" y="240" width="140" height="210" as="geometry" />
        </mxCell>
        <mxCell id="OhDDxIPIgr9wnCfn7Brg-2" value="&lt;u&gt;Emp_ID&lt;/u&gt;" style="text;strokeColor=none;fillColor=none;align=left;verticalAlign=middle;spacingLeft=4;spacingRight=4;overflow=hidden;points=[[0,0.5],[1,0.5]];portConstraint=eastwest;rotatable=0;whiteSpace=wrap;html=1;" parent="OhDDxIPIgr9wnCfn7Brg-1" vertex="1">
          <mxGeometry y="30" width="140" height="30" as="geometry" />
        </mxCell>
        <mxCell id="OhDDxIPIgr9wnCfn7Brg-3" value="&lt;div&gt;Name&lt;/div&gt;" style="text;strokeColor=none;fillColor=none;align=left;verticalAlign=middle;spacingLeft=4;spacingRight=4;overflow=hidden;points=[[0,0.5],[1,0.5]];portConstraint=eastwest;rotatable=0;whiteSpace=wrap;html=1;" parent="OhDDxIPIgr9wnCfn7Brg-1" vertex="1">
          <mxGeometry y="60" width="140" height="30" as="geometry" />
        </mxCell>
        <mxCell id="OhDDxIPIgr9wnCfn7Brg-4" value="Address&amp;nbsp;(. . .)" style="text;strokeColor=none;fillColor=none;align=left;verticalAlign=middle;spacingLeft=4;spacingRight=4;overflow=hidden;points=[[0,0.5],[1,0.5]];portConstraint=eastwest;rotatable=0;whiteSpace=wrap;html=1;" parent="OhDDxIPIgr9wnCfn7Brg-1" vertex="1">
          <mxGeometry y="90" width="140" height="30" as="geometry" />
        </mxCell>
        <mxCell id="OhDDxIPIgr9wnCfn7Brg-5" value="City/State/Zip (. . .)" style="text;strokeColor=none;fillColor=none;align=left;verticalAlign=middle;spacingLeft=4;spacingRight=4;overflow=hidden;points=[[0,0.5],[1,0.5]];portConstraint=eastwest;rotatable=0;whiteSpace=wrap;html=1;" parent="OhDDxIPIgr9wnCfn7Brg-1" vertex="1">
          <mxGeometry y="120" width="140" height="30" as="geometry" />
        </mxCell>
        <mxCell id="OhDDxIPIgr9wnCfn7Brg-6" value="Birth_Date" style="text;strokeColor=none;fillColor=none;align=left;verticalAlign=middle;spacingLeft=4;spacingRight=4;overflow=hidden;points=[[0,0.5],[1,0.5]];portConstraint=eastwest;rotatable=0;whiteSpace=wrap;html=1;" parent="OhDDxIPIgr9wnCfn7Brg-1" vertex="1">
          <mxGeometry y="150" width="140" height="30" as="geometry" />
        </mxCell>
        <mxCell id="OhDDxIPIgr9wnCfn7Brg-7" value="{Phone}" style="text;strokeColor=none;fillColor=none;align=left;verticalAlign=middle;spacingLeft=4;spacingRight=4;overflow=hidden;points=[[0,0.5],[1,0.5]];portConstraint=eastwest;rotatable=0;whiteSpace=wrap;html=1;" parent="OhDDxIPIgr9wnCfn7Brg-1" vertex="1">
          <mxGeometry y="180" width="140" height="30" as="geometry" />
        </mxCell>
        <mxCell id="OhDDxIPIgr9wnCfn7Brg-19" style="edgeStyle=elbowEdgeStyle;rounded=0;orthogonalLoop=1;jettySize=auto;html=1;elbow=vertical;entryX=0.5;entryY=0;entryDx=0;entryDy=0;" parent="1" source="OhDDxIPIgr9wnCfn7Brg-8" target="OhDDxIPIgr9wnCfn7Brg-10" edge="1">
          <mxGeometry relative="1" as="geometry">
            <mxPoint x="410" y="600" as="targetPoint" />
          </mxGeometry>
        </mxCell>
        <mxCell id="OhDDxIPIgr9wnCfn7Brg-8" value="O" style="ellipse;whiteSpace=wrap;html=1;fontStyle=0;startSize=30;horizontal=1;" parent="1" vertex="1">
          <mxGeometry x="370" y="490" width="80" height="80" as="geometry" />
        </mxCell>
        <mxCell id="dM-d7xp5EMUZUrmFZuvB-21" value="" style="edgeStyle=orthogonalEdgeStyle;rounded=0;orthogonalLoop=1;jettySize=auto;html=1;entryX=0.5;entryY=0;entryDx=0;entryDy=0;endArrow=ERzeroToMany;endFill=0;" edge="1" parent="1" source="OhDDxIPIgr9wnCfn7Brg-10" target="dM-d7xp5EMUZUrmFZuvB-6">
          <mxGeometry relative="1" as="geometry" />
        </mxCell>
        <mxCell id="OhDDxIPIgr9wnCfn7Brg-10" value="Instructor" style="swimlane;fontStyle=0;childLayout=stackLayout;horizontal=1;startSize=30;horizontalStack=0;resizeParent=1;resizeParentMax=0;resizeLast=0;collapsible=1;marginBottom=0;whiteSpace=wrap;html=1;" parent="1" vertex="1">
          <mxGeometry x="340" y="630" width="140" height="90" as="geometry" />
        </mxCell>
        <mxCell id="OhDDxIPIgr9wnCfn7Brg-11" value="Expertise" style="text;strokeColor=none;fillColor=none;align=left;verticalAlign=middle;spacingLeft=4;spacingRight=4;overflow=hidden;points=[[0,0.5],[1,0.5]];portConstraint=eastwest;rotatable=0;whiteSpace=wrap;html=1;" parent="OhDDxIPIgr9wnCfn7Brg-10" vertex="1">
          <mxGeometry y="30" width="140" height="30" as="geometry" />
        </mxCell>
        <mxCell id="OhDDxIPIgr9wnCfn7Brg-22" value="Rank" style="text;strokeColor=none;fillColor=none;align=left;verticalAlign=middle;spacingLeft=4;spacingRight=4;overflow=hidden;points=[[0,0.5],[1,0.5]];portConstraint=eastwest;rotatable=0;whiteSpace=wrap;html=1;" parent="OhDDxIPIgr9wnCfn7Brg-10" vertex="1">
          <mxGeometry y="60" width="140" height="30" as="geometry" />
        </mxCell>
        <mxCell id="OhDDxIPIgr9wnCfn7Brg-14" value="Administrator" style="swimlane;fontStyle=0;childLayout=stackLayout;horizontal=1;startSize=30;horizontalStack=0;resizeParent=1;resizeParentMax=0;resizeLast=0;collapsible=1;marginBottom=0;whiteSpace=wrap;html=1;" parent="1" vertex="1">
          <mxGeometry x="160" y="630" width="140" height="60" as="geometry" />
        </mxCell>
        <mxCell id="OhDDxIPIgr9wnCfn7Brg-15" value="Position" style="text;strokeColor=none;fillColor=none;align=left;verticalAlign=middle;spacingLeft=4;spacingRight=4;overflow=hidden;points=[[0,0.5],[1,0.5]];portConstraint=eastwest;rotatable=0;whiteSpace=wrap;html=1;" parent="OhDDxIPIgr9wnCfn7Brg-14" vertex="1">
          <mxGeometry y="30" width="140" height="30" as="geometry" />
        </mxCell>
        <mxCell id="OhDDxIPIgr9wnCfn7Brg-16" value="Staff" style="swimlane;fontStyle=0;childLayout=stackLayout;horizontal=1;startSize=30;horizontalStack=0;resizeParent=1;resizeParentMax=0;resizeLast=0;collapsible=1;marginBottom=0;whiteSpace=wrap;html=1;" parent="1" vertex="1">
          <mxGeometry x="520" y="630" width="140" height="60" as="geometry" />
        </mxCell>
        <mxCell id="OhDDxIPIgr9wnCfn7Brg-17" value="{Certificate}" style="text;strokeColor=none;fillColor=none;align=left;verticalAlign=middle;spacingLeft=4;spacingRight=4;overflow=hidden;points=[[0,0.5],[1,0.5]];portConstraint=eastwest;rotatable=0;whiteSpace=wrap;html=1;" parent="OhDDxIPIgr9wnCfn7Brg-16" vertex="1">
          <mxGeometry y="30" width="140" height="30" as="geometry" />
        </mxCell>
        <mxCell id="OhDDxIPIgr9wnCfn7Brg-20" value="" style="endArrow=classic;html=1;rounded=0;entryX=0.566;entryY=0.004;entryDx=0;entryDy=0;entryPerimeter=0;" parent="1" target="OhDDxIPIgr9wnCfn7Brg-14" edge="1">
          <mxGeometry width="50" height="50" relative="1" as="geometry">
            <mxPoint x="410" y="600" as="sourcePoint" />
            <mxPoint x="210" y="600" as="targetPoint" />
            <Array as="points">
              <mxPoint x="239" y="600" />
            </Array>
          </mxGeometry>
        </mxCell>
        <mxCell id="OhDDxIPIgr9wnCfn7Brg-21" value="" style="endArrow=classic;html=1;rounded=0;entryX=0.566;entryY=0.004;entryDx=0;entryDy=0;entryPerimeter=0;" parent="1" edge="1">
          <mxGeometry width="50" height="50" relative="1" as="geometry">
            <mxPoint x="410" y="600" as="sourcePoint" />
            <mxPoint x="590" y="630" as="targetPoint" />
            <Array as="points">
              <mxPoint x="590" y="600" />
            </Array>
          </mxGeometry>
        </mxCell>
        <mxCell id="OhDDxIPIgr9wnCfn7Brg-23" value="" style="edgeStyle=orthogonalEdgeStyle;rounded=0;orthogonalLoop=1;jettySize=auto;html=1;shape=link;" parent="1" source="OhDDxIPIgr9wnCfn7Brg-24" target="OhDDxIPIgr9wnCfn7Brg-32" edge="1">
          <mxGeometry relative="1" as="geometry" />
        </mxCell>
        <mxCell id="OhDDxIPIgr9wnCfn7Brg-24" value="Room" style="swimlane;fontStyle=0;childLayout=stackLayout;horizontal=1;startSize=30;horizontalStack=0;resizeParent=1;resizeParentMax=0;resizeLast=0;collapsible=1;marginBottom=0;whiteSpace=wrap;html=1;" parent="1" vertex="1">
          <mxGeometry x="850" y="350" width="140" height="120" as="geometry" />
        </mxCell>
        <mxCell id="OhDDxIPIgr9wnCfn7Brg-25" value="&lt;u&gt;Building_ID&lt;/u&gt;" style="text;strokeColor=none;fillColor=none;align=left;verticalAlign=middle;spacingLeft=4;spacingRight=4;overflow=hidden;points=[[0,0.5],[1,0.5]];portConstraint=eastwest;rotatable=0;whiteSpace=wrap;html=1;" parent="OhDDxIPIgr9wnCfn7Brg-24" vertex="1">
          <mxGeometry y="30" width="140" height="30" as="geometry" />
        </mxCell>
        <mxCell id="OhDDxIPIgr9wnCfn7Brg-26" value="Room_NO" style="text;strokeColor=none;fillColor=none;align=left;verticalAlign=middle;spacingLeft=4;spacingRight=4;overflow=hidden;points=[[0,0.5],[1,0.5]];portConstraint=eastwest;rotatable=0;whiteSpace=wrap;html=1;" parent="OhDDxIPIgr9wnCfn7Brg-24" vertex="1">
          <mxGeometry y="60" width="140" height="30" as="geometry" />
        </mxCell>
        <mxCell id="OhDDxIPIgr9wnCfn7Brg-27" value="Capacity" style="text;strokeColor=none;fillColor=none;align=left;verticalAlign=middle;spacingLeft=4;spacingRight=4;overflow=hidden;points=[[0,0.5],[1,0.5]];portConstraint=eastwest;rotatable=0;whiteSpace=wrap;html=1;" parent="OhDDxIPIgr9wnCfn7Brg-24" vertex="1">
          <mxGeometry y="90" width="140" height="30" as="geometry" />
        </mxCell>
        <mxCell id="OhDDxIPIgr9wnCfn7Brg-31" style="edgeStyle=elbowEdgeStyle;rounded=0;orthogonalLoop=1;jettySize=auto;html=1;elbow=vertical;endArrow=none;endFill=0;" parent="1" source="OhDDxIPIgr9wnCfn7Brg-32" edge="1">
          <mxGeometry relative="1" as="geometry">
            <mxPoint x="920" y="650" as="targetPoint" />
          </mxGeometry>
        </mxCell>
        <mxCell id="OhDDxIPIgr9wnCfn7Brg-32" value="D" style="ellipse;whiteSpace=wrap;html=1;fontStyle=0;startSize=30;horizontal=1;" parent="1" vertex="1">
          <mxGeometry x="880" y="540" width="80" height="80" as="geometry" />
        </mxCell>
        <mxCell id="OhDDxIPIgr9wnCfn7Brg-36" value="Classroom" style="swimlane;fontStyle=0;childLayout=stackLayout;horizontal=1;startSize=30;horizontalStack=0;resizeParent=1;resizeParentMax=0;resizeLast=0;collapsible=1;marginBottom=0;whiteSpace=wrap;html=1;" parent="1" vertex="1">
          <mxGeometry x="740" y="680" width="140" height="60" as="geometry" />
        </mxCell>
        <mxCell id="OhDDxIPIgr9wnCfn7Brg-38" value="Office" style="swimlane;fontStyle=0;childLayout=stackLayout;horizontal=1;startSize=30;horizontalStack=0;resizeParent=1;resizeParentMax=0;resizeLast=0;collapsible=1;marginBottom=0;whiteSpace=wrap;html=1;" parent="1" vertex="1">
          <mxGeometry x="960" y="680" width="140" height="60" as="geometry" />
        </mxCell>
        <mxCell id="OhDDxIPIgr9wnCfn7Brg-40" value="" style="endArrow=classic;html=1;rounded=0;" parent="1" edge="1">
          <mxGeometry width="50" height="50" relative="1" as="geometry">
            <mxPoint x="920" y="650" as="sourcePoint" />
            <mxPoint x="810" y="680" as="targetPoint" />
            <Array as="points">
              <mxPoint x="810" y="650" />
            </Array>
          </mxGeometry>
        </mxCell>
        <mxCell id="OhDDxIPIgr9wnCfn7Brg-41" value="" style="endArrow=classic;html=1;rounded=0;entryX=0.5;entryY=0;entryDx=0;entryDy=0;" parent="1" target="OhDDxIPIgr9wnCfn7Brg-38" edge="1">
          <mxGeometry width="50" height="50" relative="1" as="geometry">
            <mxPoint x="920" y="650" as="sourcePoint" />
            <mxPoint x="1020" y="670" as="targetPoint" />
            <Array as="points">
              <mxPoint x="1030" y="650" />
            </Array>
          </mxGeometry>
        </mxCell>
        <mxCell id="dM-d7xp5EMUZUrmFZuvB-48" style="edgeStyle=orthogonalEdgeStyle;rounded=0;orthogonalLoop=1;jettySize=auto;html=1;entryX=0.433;entryY=1.024;entryDx=0;entryDy=0;endArrow=ERzeroToMany;endFill=0;entryPerimeter=0;exitX=0.001;exitY=0.886;exitDx=0;exitDy=0;exitPerimeter=0;" edge="1" parent="1" source="dM-d7xp5EMUZUrmFZuvB-29" target="dM-d7xp5EMUZUrmFZuvB-56">
          <mxGeometry relative="1" as="geometry">
            <mxPoint x="930" y="870" as="targetPoint" />
            <Array as="points" />
          </mxGeometry>
        </mxCell>
        <mxCell id="dM-d7xp5EMUZUrmFZuvB-1" value="Timeslot" style="swimlane;fontStyle=0;childLayout=stackLayout;horizontal=1;startSize=30;horizontalStack=0;resizeParent=1;resizeParentMax=0;resizeLast=0;collapsible=1;marginBottom=0;whiteSpace=wrap;html=1;" vertex="1" parent="1">
          <mxGeometry x="930" y="840" width="140" height="150" as="geometry" />
        </mxCell>
        <mxCell id="dM-d7xp5EMUZUrmFZuvB-2" value="&lt;u&gt;TSIS&lt;/u&gt;" style="text;strokeColor=none;fillColor=none;align=left;verticalAlign=middle;spacingLeft=4;spacingRight=4;overflow=hidden;points=[[0,0.5],[1,0.5]];portConstraint=eastwest;rotatable=0;whiteSpace=wrap;html=1;" vertex="1" parent="dM-d7xp5EMUZUrmFZuvB-1">
          <mxGeometry y="30" width="140" height="30" as="geometry" />
        </mxCell>
        <mxCell id="dM-d7xp5EMUZUrmFZuvB-29" value="DayofWeek" style="text;strokeColor=none;fillColor=none;align=left;verticalAlign=middle;spacingLeft=4;spacingRight=4;overflow=hidden;points=[[0,0.5],[1,0.5]];portConstraint=eastwest;rotatable=0;whiteSpace=wrap;html=1;" vertex="1" parent="dM-d7xp5EMUZUrmFZuvB-1">
          <mxGeometry y="60" width="140" height="30" as="geometry" />
        </mxCell>
        <mxCell id="dM-d7xp5EMUZUrmFZuvB-3" value="StartTime" style="text;strokeColor=none;fillColor=none;align=left;verticalAlign=middle;spacingLeft=4;spacingRight=4;overflow=hidden;points=[[0,0.5],[1,0.5]];portConstraint=eastwest;rotatable=0;whiteSpace=wrap;html=1;" vertex="1" parent="dM-d7xp5EMUZUrmFZuvB-1">
          <mxGeometry y="90" width="140" height="30" as="geometry" />
        </mxCell>
        <mxCell id="dM-d7xp5EMUZUrmFZuvB-4" value="EndTime" style="text;strokeColor=none;fillColor=none;align=left;verticalAlign=middle;spacingLeft=4;spacingRight=4;overflow=hidden;points=[[0,0.5],[1,0.5]];portConstraint=eastwest;rotatable=0;whiteSpace=wrap;html=1;" vertex="1" parent="dM-d7xp5EMUZUrmFZuvB-1">
          <mxGeometry y="120" width="140" height="30" as="geometry" />
        </mxCell>
        <mxCell id="dM-d7xp5EMUZUrmFZuvB-36" style="edgeStyle=orthogonalEdgeStyle;rounded=0;orthogonalLoop=1;jettySize=auto;html=1;entryX=0.5;entryY=1;entryDx=0;entryDy=0;exitX=0.303;exitY=0.97;exitDx=0;exitDy=0;exitPerimeter=0;endArrow=ERzeroToMany;endFill=0;" edge="1" parent="1" source="dM-d7xp5EMUZUrmFZuvB-9" target="dM-d7xp5EMUZUrmFZuvB-32">
          <mxGeometry relative="1" as="geometry" />
        </mxCell>
        <mxCell id="dM-d7xp5EMUZUrmFZuvB-6" value="Course" style="swimlane;fontStyle=0;childLayout=stackLayout;horizontal=1;startSize=30;horizontalStack=0;resizeParent=1;resizeParentMax=0;resizeLast=0;collapsible=1;marginBottom=0;whiteSpace=wrap;html=1;" vertex="1" parent="1">
          <mxGeometry x="340" y="820" width="140" height="120" as="geometry" />
        </mxCell>
        <mxCell id="dM-d7xp5EMUZUrmFZuvB-7" value="&lt;u&gt;CourseID&lt;/u&gt;" style="text;strokeColor=none;fillColor=none;align=left;verticalAlign=middle;spacingLeft=4;spacingRight=4;overflow=hidden;points=[[0,0.5],[1,0.5]];portConstraint=eastwest;rotatable=0;whiteSpace=wrap;html=1;" vertex="1" parent="dM-d7xp5EMUZUrmFZuvB-6">
          <mxGeometry y="30" width="140" height="30" as="geometry" />
        </mxCell>
        <mxCell id="dM-d7xp5EMUZUrmFZuvB-8" value="CourseDescription" style="text;strokeColor=none;fillColor=none;align=left;verticalAlign=middle;spacingLeft=4;spacingRight=4;overflow=hidden;points=[[0,0.5],[1,0.5]];portConstraint=eastwest;rotatable=0;whiteSpace=wrap;html=1;" vertex="1" parent="dM-d7xp5EMUZUrmFZuvB-6">
          <mxGeometry y="60" width="140" height="30" as="geometry" />
        </mxCell>
        <mxCell id="dM-d7xp5EMUZUrmFZuvB-9" value="Credits" style="text;strokeColor=none;fillColor=none;align=left;verticalAlign=middle;spacingLeft=4;spacingRight=4;overflow=hidden;points=[[0,0.5],[1,0.5]];portConstraint=eastwest;rotatable=0;whiteSpace=wrap;html=1;" vertex="1" parent="dM-d7xp5EMUZUrmFZuvB-6">
          <mxGeometry y="90" width="140" height="30" as="geometry" />
        </mxCell>
        <mxCell id="dM-d7xp5EMUZUrmFZuvB-11" value="Section" style="swimlane;fontStyle=0;childLayout=stackLayout;horizontal=1;startSize=30;horizontalStack=0;resizeParent=1;resizeParentMax=0;resizeLast=0;collapsible=1;marginBottom=0;whiteSpace=wrap;html=1;" vertex="1" parent="1">
          <mxGeometry x="570" y="950" width="140" height="90" as="geometry" />
        </mxCell>
        <mxCell id="dM-d7xp5EMUZUrmFZuvB-12" value="&lt;u&gt;Section_ID&lt;/u&gt;" style="text;strokeColor=none;fillColor=none;align=left;verticalAlign=middle;spacingLeft=4;spacingRight=4;overflow=hidden;points=[[0,0.5],[1,0.5]];portConstraint=eastwest;rotatable=0;whiteSpace=wrap;html=1;" vertex="1" parent="dM-d7xp5EMUZUrmFZuvB-11">
          <mxGeometry y="30" width="140" height="30" as="geometry" />
        </mxCell>
        <mxCell id="dM-d7xp5EMUZUrmFZuvB-13" value="EnrollmentLimit" style="text;strokeColor=none;fillColor=none;align=left;verticalAlign=middle;spacingLeft=4;spacingRight=4;overflow=hidden;points=[[0,0.5],[1,0.5]];portConstraint=eastwest;rotatable=0;whiteSpace=wrap;html=1;" vertex="1" parent="dM-d7xp5EMUZUrmFZuvB-11">
          <mxGeometry y="60" width="140" height="30" as="geometry" />
        </mxCell>
        <mxCell id="dM-d7xp5EMUZUrmFZuvB-28" value="" style="endArrow=ERzeroToOne;html=1;rounded=0;exitX=0.994;exitY=0.307;exitDx=0;exitDy=0;endFill=0;startArrow=ERzeroToMany;startFill=0;entryX=0.636;entryY=-0.045;entryDx=0;entryDy=0;entryPerimeter=0;exitPerimeter=0;" edge="1" parent="1" source="OhDDxIPIgr9wnCfn7Brg-2" target="OhDDxIPIgr9wnCfn7Brg-38">
          <mxGeometry width="50" height="50" relative="1" as="geometry">
            <mxPoint x="680" y="480" as="sourcePoint" />
            <mxPoint x="1050" y="670" as="targetPoint" />
            <Array as="points">
              <mxPoint x="1050" y="280" />
            </Array>
          </mxGeometry>
        </mxCell>
        <mxCell id="dM-d7xp5EMUZUrmFZuvB-31" style="edgeStyle=orthogonalEdgeStyle;rounded=0;orthogonalLoop=1;jettySize=auto;html=1;entryX=0;entryY=0.5;entryDx=0;entryDy=0;endArrow=ERoneToMany;endFill=0;" edge="1" parent="1" source="dM-d7xp5EMUZUrmFZuvB-8" target="dM-d7xp5EMUZUrmFZuvB-12">
          <mxGeometry relative="1" as="geometry" />
        </mxCell>
        <mxCell id="dM-d7xp5EMUZUrmFZuvB-41" style="edgeStyle=orthogonalEdgeStyle;rounded=0;orthogonalLoop=1;jettySize=auto;html=1;endArrow=ERzeroToMany;endFill=0;" edge="1" parent="1" source="dM-d7xp5EMUZUrmFZuvB-32">
          <mxGeometry relative="1" as="geometry">
            <mxPoint x="380" y="820" as="targetPoint" />
            <Array as="points">
              <mxPoint x="210" y="780" />
              <mxPoint x="380" y="780" />
              <mxPoint x="380" y="820" />
            </Array>
          </mxGeometry>
        </mxCell>
        <mxCell id="dM-d7xp5EMUZUrmFZuvB-32" value="Prerequisite" style="swimlane;fontStyle=0;childLayout=stackLayout;horizontal=1;startSize=30;horizontalStack=0;resizeParent=1;resizeParentMax=0;resizeLast=0;collapsible=1;marginBottom=0;whiteSpace=wrap;html=1;" vertex="1" parent="1">
          <mxGeometry x="140" y="850" width="140" height="60" as="geometry" />
        </mxCell>
        <mxCell id="dM-d7xp5EMUZUrmFZuvB-47" style="edgeStyle=orthogonalEdgeStyle;rounded=0;orthogonalLoop=1;jettySize=auto;html=1;endArrow=ERzeroToMany;endFill=0;exitX=0.5;exitY=1;exitDx=0;exitDy=0;entryX=0.5;entryY=0;entryDx=0;entryDy=0;" edge="1" parent="1" source="OhDDxIPIgr9wnCfn7Brg-36" target="dM-d7xp5EMUZUrmFZuvB-54">
          <mxGeometry relative="1" as="geometry">
            <mxPoint x="810" y="730" as="sourcePoint" />
            <mxPoint x="840" y="790" as="targetPoint" />
            <Array as="points">
              <mxPoint x="800" y="740" />
            </Array>
          </mxGeometry>
        </mxCell>
        <mxCell id="dM-d7xp5EMUZUrmFZuvB-54" value="Schedule" style="swimlane;fontStyle=0;childLayout=stackLayout;horizontal=1;startSize=30;horizontalStack=0;resizeParent=1;resizeParentMax=0;resizeLast=0;collapsible=1;marginBottom=0;whiteSpace=wrap;html=1;" vertex="1" parent="1">
          <mxGeometry x="730" y="800" width="140" height="90" as="geometry" />
        </mxCell>
        <mxCell id="dM-d7xp5EMUZUrmFZuvB-55" value="Semster" style="text;strokeColor=none;fillColor=none;align=left;verticalAlign=middle;spacingLeft=4;spacingRight=4;overflow=hidden;points=[[0,0.5],[1,0.5]];portConstraint=eastwest;rotatable=0;whiteSpace=wrap;html=1;" vertex="1" parent="dM-d7xp5EMUZUrmFZuvB-54">
          <mxGeometry y="30" width="140" height="30" as="geometry" />
        </mxCell>
        <mxCell id="dM-d7xp5EMUZUrmFZuvB-56" value="Year" style="text;strokeColor=none;fillColor=none;align=left;verticalAlign=middle;spacingLeft=4;spacingRight=4;overflow=hidden;points=[[0,0.5],[1,0.5]];portConstraint=eastwest;rotatable=0;whiteSpace=wrap;html=1;" vertex="1" parent="dM-d7xp5EMUZUrmFZuvB-54">
          <mxGeometry y="60" width="140" height="30" as="geometry" />
        </mxCell>
        <mxCell id="dM-d7xp5EMUZUrmFZuvB-75" style="edgeStyle=orthogonalEdgeStyle;rounded=0;orthogonalLoop=1;jettySize=auto;html=1;entryX=0;entryY=0.333;entryDx=0;entryDy=0;entryPerimeter=0;endArrow=ERzeroToMany;endFill=0;" edge="1" parent="1" source="dM-d7xp5EMUZUrmFZuvB-11" target="dM-d7xp5EMUZUrmFZuvB-55">
          <mxGeometry relative="1" as="geometry" />
        </mxCell>
      </root>
    </mxGraphModel>
  </diagram>
</mxfile>
